<svg version="1.1" id="Layer_1" xmlns="http://www.w3.org/2000/svg" xmlns:xlink="http://www.w3.org/1999/xlink" x="0px" y="0px"
	 width="100%" viewBox="0 0 644 623" enable-background="new 0 0 644 623" xml:space="preserve">
<path fill="#010101" opacity="1.000000" stroke="none" 
	d="
M445.000000,624.000000 
	C296.666687,624.000000 148.833389,624.000000 1.000060,624.000000 
	C1.000040,416.333405 1.000040,208.666794 1.000020,1.000143 
	C215.666565,1.000095 430.333130,1.000095 644.999756,1.000048 
	C644.999878,208.666519 644.999878,416.333038 644.999939,623.999756 
	C578.500000,624.000000 512.000000,624.000000 445.000000,624.000000 
M199.498947,558.505920 
	C278.315613,558.520752 357.132263,558.563354 435.948914,558.531372 
	C456.436157,558.523071 475.743042,554.101318 493.288330,542.970886 
	C523.168335,524.015686 538.959961,496.997070 540.073730,461.609650 
	C540.403748,451.126312 540.242554,440.616272 539.937195,430.129211 
	C539.794189,425.217438 541.696167,423.972778 546.365356,424.050659 
	C562.295959,424.316345 580.987549,409.062073 580.203186,389.826324 
	C579.572266,374.353973 580.176208,358.834625 579.881775,343.342834 
	C579.807800,339.450562 579.069885,335.273285 577.467529,331.760529 
	C571.344910,318.338318 560.080750,312.142242 545.823425,311.240387 
	C541.545776,310.969818 539.967407,309.827911 540.057922,305.429352 
	C540.290955,294.103729 540.090942,282.769714 540.109253,271.439087 
	C540.131226,257.816986 537.510132,244.544922 532.235291,232.180389 
	C522.044189,208.292068 505.412598,190.292984 481.226959,179.588745 
	C468.098297,173.778183 454.649841,170.441635 440.275299,170.484344 
	C406.447906,170.584854 372.620026,170.516479 338.792328,170.516403 
	C327.715942,170.516373 327.715973,170.516296 327.536438,159.787842 
	C327.528076,159.288132 327.514160,158.788498 327.509888,158.288773 
	C327.359650,140.628311 327.256287,122.967232 327.023712,105.307854 
	C326.974609,101.577057 328.196045,99.862602 332.209045,99.861778 
	C335.468170,99.861107 338.794495,99.205742 341.974548,98.387871 
	C356.891174,94.551476 362.410065,79.122749 357.738220,66.430939 
	C353.678497,55.402122 344.941284,50.214088 333.288818,50.132442 
	C317.958710,50.025032 302.625275,49.945038 287.298187,50.176559 
	C283.605713,50.232330 279.713776,51.017841 276.289368,52.399307 
	C263.402283,57.598179 257.722565,73.410538 264.120819,85.790085 
	C269.194733,95.607178 278.066040,99.303223 288.428070,99.469582 
	C293.192139,99.546066 293.924469,101.454964 293.897308,105.465294 
	C293.764221,125.127831 293.674530,144.793549 293.921387,164.453720 
	C293.982605,169.329071 292.459839,170.664230 287.678802,170.642319 
	C251.352325,170.475662 215.016022,170.127396 178.702896,170.848526 
	C168.273148,171.055664 157.518982,173.436203 147.596832,176.822372 
	C127.243988,183.768250 111.039314,196.732788 99.006035,214.731705 
	C90.969864,226.751907 84.712326,239.634186 83.747658,254.156952 
	C82.612457,271.246887 82.515915,288.414062 82.317276,305.551788 
	C82.271248,309.522675 80.903358,310.819550 77.235703,311.150574 
	C73.445457,311.492584 69.654892,312.183533 65.952866,313.084869 
	C54.488560,315.876068 41.980484,328.938446 42.414879,342.483887 
	C42.970055,359.795563 42.522484,377.138397 42.604931,394.467346 
	C42.616615,396.923065 42.643917,399.604584 43.575687,401.793518 
	C49.731888,416.256134 61.033112,423.549835 76.545708,424.068176 
	C81.270340,424.226044 82.506729,425.985260 82.426163,430.383606 
	C82.212585,442.043549 82.072777,453.719879 82.455986,465.371521 
	C82.846260,477.237885 84.978317,488.883087 90.106598,499.706024 
	C97.767097,515.873047 108.390030,529.574707 123.105072,540.176270 
	C135.244843,548.922424 148.686859,554.418457 163.175583,556.578735 
	C174.787933,558.310120 186.712601,557.946960 199.498947,558.505920 
z"/>
<path fill="#F9F9F9" opacity="1.000000" stroke="none" 
	d="
M198.998810,558.509644 
	C186.712601,557.946960 174.787933,558.310120 163.175583,556.578735 
	C148.686859,554.418457 135.244843,548.922424 123.105072,540.176270 
	C108.390030,529.574707 97.767097,515.873047 90.106598,499.706024 
	C84.978317,488.883087 82.846260,477.237885 82.455986,465.371521 
	C82.072777,453.719879 82.212585,442.043549 82.426163,430.383606 
	C82.506729,425.985260 81.270340,424.226044 76.545708,424.068176 
	C61.033112,423.549835 49.731888,416.256134 43.575687,401.793518 
	C42.643917,399.604584 42.616615,396.923065 42.604931,394.467346 
	C42.522484,377.138397 42.970055,359.795563 42.414879,342.483887 
	C41.980484,328.938446 54.488560,315.876068 65.952866,313.084869 
	C69.654892,312.183533 73.445457,311.492584 77.235703,311.150574 
	C80.903358,310.819550 82.271248,309.522675 82.317276,305.551788 
	C82.515915,288.414062 82.612457,271.246887 83.747658,254.156952 
	C84.712326,239.634186 90.969864,226.751907 99.006035,214.731705 
	C111.039314,196.732788 127.243988,183.768250 147.596832,176.822372 
	C157.518982,173.436203 168.273148,171.055664 178.702896,170.848526 
	C215.016022,170.127396 251.352325,170.475662 287.678802,170.642319 
	C292.459839,170.664230 293.982605,169.329071 293.921387,164.453720 
	C293.674530,144.793549 293.764221,125.127831 293.897308,105.465294 
	C293.924469,101.454964 293.192139,99.546066 288.428070,99.469582 
	C278.066040,99.303223 269.194733,95.607178 264.120819,85.790085 
	C257.722565,73.410538 263.402283,57.598179 276.289368,52.399307 
	C279.713776,51.017841 283.605713,50.232330 287.298187,50.176559 
	C302.625275,49.945038 317.958710,50.025032 333.288818,50.132442 
	C344.941284,50.214088 353.678497,55.402122 357.738220,66.430939 
	C362.410065,79.122749 356.891174,94.551476 341.974548,98.387871 
	C338.794495,99.205742 335.468170,99.861107 332.209045,99.861778 
	C328.196045,99.862602 326.974609,101.577057 327.023712,105.307854 
	C327.256287,122.967232 327.359650,140.628311 327.509888,158.288773 
	C327.514160,158.788498 327.528076,159.288132 327.536438,159.787842 
	C327.715973,170.516296 327.715942,170.516373 338.792328,170.516403 
	C372.620026,170.516479 406.447906,170.584854 440.275299,170.484344 
	C454.649841,170.441635 468.098297,173.778183 481.226959,179.588745 
	C505.412598,190.292984 522.044189,208.292068 532.235291,232.180389 
	C537.510132,244.544922 540.131226,257.816986 540.109253,271.439087 
	C540.090942,282.769714 540.290955,294.103729 540.057922,305.429352 
	C539.967407,309.827911 541.545776,310.969818 545.823425,311.240387 
	C560.080750,312.142242 571.344910,318.338318 577.467529,331.760529 
	C579.069885,335.273285 579.807800,339.450562 579.881775,343.342834 
	C580.176208,358.834625 579.572266,374.353973 580.203186,389.826324 
	C580.987549,409.062073 562.295959,424.316345 546.365356,424.050659 
	C541.696167,423.972778 539.794189,425.217438 539.937195,430.129211 
	C540.242554,440.616272 540.403748,451.126312 540.073730,461.609650 
	C538.959961,496.997070 523.168335,524.015686 493.288330,542.970886 
	C475.743042,554.101318 456.436157,558.523071 435.948914,558.531372 
	C357.132263,558.563354 278.315613,558.520752 198.998810,558.509644 
M505.141632,432.500000 
	C505.050690,378.510010 504.942230,324.520081 504.884613,270.530029 
	C504.873962,260.544617 502.857391,250.908768 498.055481,242.293533 
	C485.109924,219.067490 465.503326,206.761139 438.400787,206.802094 
	C352.580750,206.931793 266.760315,206.824799 180.940262,206.952591 
	C175.692764,206.960388 170.315552,207.687317 165.222397,208.968765 
	C136.651199,216.157379 117.632294,240.680679 117.613853,270.146515 
	C117.574753,332.636993 117.556679,395.127625 117.693565,457.617828 
	C117.705788,463.199524 118.473167,468.871643 119.635338,474.343414 
	C125.905457,503.864532 152.067093,522.358765 180.718796,522.831482 
	C214.866699,523.394958 249.032547,522.867676 283.190613,522.819092 
	C334.177521,522.746582 385.164490,522.627258 436.151367,522.645325 
	C449.396698,522.650024 461.835114,519.831787 473.306000,513.171265 
	C490.439789,503.222656 501.046051,488.302612 503.897278,468.879944 
	C505.600739,457.275909 504.809357,445.305634 505.141632,432.500000 
z"/>
<path fill="#020202" opacity="1.000000" stroke="none" 
	d="
M505.140503,433.000000 
	C504.809357,445.305634 505.600739,457.275909 503.897278,468.879944 
	C501.046051,488.302612 490.439789,503.222656 473.306000,513.171265 
	C461.835114,519.831787 449.396698,522.650024 436.151367,522.645325 
	C385.164490,522.627258 334.177521,522.746582 283.190613,522.819092 
	C249.032547,522.867676 214.866699,523.394958 180.718796,522.831482 
	C152.067093,522.358765 125.905457,503.864532 119.635338,474.343414 
	C118.473167,468.871643 117.705788,463.199524 117.693565,457.617828 
	C117.556679,395.127625 117.574753,332.636993 117.613853,270.146515 
	C117.632294,240.680679 136.651199,216.157379 165.222397,208.968765 
	C170.315552,207.687317 175.692764,206.960388 180.940262,206.952591 
	C266.760315,206.824799 352.580750,206.931793 438.400787,206.802094 
	C465.503326,206.761139 485.109924,219.067490 498.055481,242.293533 
	C502.857391,250.908768 504.873962,260.544617 504.884613,270.530029 
	C504.942230,324.520081 505.050690,378.510010 505.140503,433.000000 
M465.123932,430.072357 
	C465.096710,428.739288 465.094543,427.405151 465.038483,426.073303 
	C464.372345,410.244995 465.155426,394.592773 470.816315,379.557251 
	C471.826080,376.875275 472.065674,373.742981 476.282013,373.466614 
	C481.203308,373.144104 484.478516,369.195526 484.540466,364.547791 
	C484.606110,359.622070 480.872223,354.502136 476.244354,354.254547 
	C472.569672,354.057983 471.529724,352.326752 470.762970,349.197968 
	C469.582642,344.381592 468.278076,339.528107 466.355591,334.973450 
	C459.977448,319.862427 449.864044,307.807343 435.929810,299.018219 
	C418.161682,287.810822 398.941071,284.119446 378.645508,289.458923 
	C357.885742,294.920532 341.863831,307.142792 330.539795,325.664612 
	C318.979614,344.572693 317.300110,364.623840 322.156494,385.687408 
	C324.558258,396.104492 330.015472,404.937988 336.585602,413.200409 
	C356.227936,437.902039 383.475922,445.620758 411.125458,440.512939 
	C426.542969,437.664856 439.877991,429.572174 450.709442,417.872192 
	C451.734131,416.765381 453.031738,415.911224 455.030029,414.253235 
	C455.344360,416.807861 455.658600,418.205566 455.666504,419.605011 
	C455.743652,433.269989 455.737366,446.935486 455.834778,460.600250 
	C455.856934,463.706970 455.434113,466.141205 452.627045,468.393524 
	C448.687531,471.554443 449.204041,479.230865 452.951080,482.808563 
	C457.866455,487.501770 464.586334,487.335907 468.867676,482.415771 
	C472.732361,477.974396 472.294861,471.424774 468.522125,467.534332 
	C466.787689,465.745789 465.276367,462.910126 465.193207,460.496552 
	C464.854858,450.676880 465.108795,440.836792 465.123932,430.072357 
M182.904037,371.500214 
	C183.029907,379.494934 182.864716,387.509491 183.406799,395.475891 
	C183.670334,399.348907 184.488235,403.572723 186.383392,406.875610 
	C192.863464,418.169098 205.193237,422.962067 217.159576,419.509552 
	C226.100708,416.929810 236.696747,406.408630 236.044022,393.116089 
	C235.423889,380.486969 235.945602,367.802368 235.945877,355.142151 
	C235.946152,342.047852 229.823380,332.885315 217.621582,328.595978 
	C204.988113,324.154907 187.844162,331.224365 184.909271,344.331146 
	C183.017242,352.780579 183.486969,361.758911 182.904037,371.500214 
M228.364044,283.471405 
	C232.379562,282.684906 235.982208,281.117340 235.872208,276.361115 
	C235.764862,271.718750 232.197037,269.868195 228.189316,269.334045 
	C221.138702,268.394348 213.999298,266.920532 206.971954,267.253021 
	C191.671402,267.976929 179.530853,275.376312 170.360580,287.511810 
	C166.891647,292.102417 167.269058,296.353851 170.738144,299.009552 
	C174.065887,301.557037 177.220184,300.333099 181.168259,295.633789 
	C183.914459,292.365051 186.752380,288.881500 190.268616,286.604858 
	C202.016052,278.998871 214.699860,279.221588 228.364044,283.471405 
z"/>
<path fill="#F1F1F1" opacity="1.000000" stroke="none" 
	d="
M465.134155,430.538269 
	C465.108795,440.836792 464.854858,450.676880 465.193207,460.496552 
	C465.276367,462.910126 466.787689,465.745789 468.522125,467.534332 
	C472.294861,471.424774 472.732361,477.974396 468.867676,482.415771 
	C464.586334,487.335907 457.866455,487.501770 452.951080,482.808563 
	C449.204041,479.230865 448.687531,471.554443 452.627045,468.393524 
	C455.434113,466.141205 455.856934,463.706970 455.834778,460.600250 
	C455.737366,446.935486 455.743652,433.269989 455.666504,419.605011 
	C455.658600,418.205566 455.344360,416.807861 455.030029,414.253235 
	C453.031738,415.911224 451.734131,416.765381 450.709442,417.872192 
	C439.877991,429.572174 426.542969,437.664856 411.125458,440.512939 
	C383.475922,445.620758 356.227936,437.902039 336.585602,413.200409 
	C330.015472,404.937988 324.558258,396.104492 322.156494,385.687408 
	C317.300110,364.623840 318.979614,344.572693 330.539795,325.664612 
	C341.863831,307.142792 357.885742,294.920532 378.645508,289.458923 
	C398.941071,284.119446 418.161682,287.810822 435.929810,299.018219 
	C449.864044,307.807343 459.977448,319.862427 466.355591,334.973450 
	C468.278076,339.528107 469.582642,344.381592 470.762970,349.197968 
	C471.529724,352.326752 472.569672,354.057983 476.244354,354.254547 
	C480.872223,354.502136 484.606110,359.622070 484.540466,364.547791 
	C484.478516,369.195526 481.203308,373.144104 476.282013,373.466614 
	C472.065674,373.742981 471.826080,376.875275 470.816315,379.557251 
	C465.155426,394.592773 464.372345,410.244995 465.038483,426.073303 
	C465.094543,427.405151 465.096710,428.739288 465.134155,430.538269 
M444.420471,404.836365 
	C447.563171,398.850769 451.205811,393.070099 453.758484,386.842682 
	C462.842834,364.680908 459.251648,343.572205 444.701294,325.428131 
	C428.623322,305.379059 407.166748,296.767120 381.297729,303.240814 
	C364.245544,307.508057 351.021118,317.441223 342.171143,332.629669 
	C332.168091,349.797028 330.842377,367.812439 336.920807,386.857178 
	C345.262665,412.993561 373.938141,430.025848 398.677460,428.475922 
	C416.725342,427.345154 432.147339,419.525635 444.420471,404.836365 
z"/>
<path fill="#F8F8F8" opacity="1.000000" stroke="none" 
	d="
M182.901123,371.000183 
	C183.486969,361.758911 183.017242,352.780579 184.909271,344.331146 
	C187.844162,331.224365 204.988113,324.154907 217.621582,328.595978 
	C229.823380,332.885315 235.946152,342.047852 235.945877,355.142151 
	C235.945602,367.802368 235.423889,380.486969 236.044022,393.116089 
	C236.696747,406.408630 226.100708,416.929810 217.159576,419.509552 
	C205.193237,422.962067 192.863464,418.169098 186.383392,406.875610 
	C184.488235,403.572723 183.670334,399.348907 183.406799,395.475891 
	C182.864716,387.509491 183.029907,379.494934 182.901123,371.000183 
z"/>
<path fill="#EFEFEF" opacity="1.000000" stroke="none" 
	d="
M227.983551,283.416016 
	C214.699860,279.221588 202.016052,278.998871 190.268616,286.604858 
	C186.752380,288.881500 183.914459,292.365051 181.168259,295.633789 
	C177.220184,300.333099 174.065887,301.557037 170.738144,299.009552 
	C167.269058,296.353851 166.891647,292.102417 170.360580,287.511810 
	C179.530853,275.376312 191.671402,267.976929 206.971954,267.253021 
	C213.999298,266.920532 221.138702,268.394348 228.189316,269.334045 
	C232.197037,269.868195 235.764862,271.718750 235.872208,276.361115 
	C235.982208,281.117340 232.379562,282.684906 227.983551,283.416016 
z"/>
<path fill="#060606" opacity="1.000000" stroke="none" 
	d="
M444.183807,405.106506 
	C432.147339,419.525635 416.725342,427.345154 398.677460,428.475922 
	C373.938141,430.025848 345.262665,412.993561 336.920807,386.857178 
	C330.842377,367.812439 332.168091,349.797028 342.171143,332.629669 
	C351.021118,317.441223 364.245544,307.508057 381.297729,303.240814 
	C407.166748,296.767120 428.623322,305.379059 444.701294,325.428131 
	C459.251648,343.572205 462.842834,364.680908 453.758484,386.842682 
	C451.205811,393.070099 447.563171,398.850769 444.183807,405.106506 
M418.750916,391.901123 
	C419.036987,389.605896 419.552917,387.312469 419.570587,385.015167 
	C419.661285,373.203491 419.159821,361.366943 419.765259,349.585358 
	C420.341003,338.380859 409.275177,328.147552 400.790558,327.315216 
	C385.447998,325.810089 373.544922,334.907532 373.045319,346.004150 
	C372.403168,360.267120 372.462372,374.611877 373.210602,388.869415 
	C373.704315,398.276581 382.851440,405.311188 390.893494,406.981293 
	C403.415405,409.581635 412.665527,404.402466 418.750916,391.901123 
z"/>
<path fill="#F7F7F7" opacity="1.000000" stroke="none" 
	d="
M418.565094,392.251923 
	C412.665527,404.402466 403.415405,409.581635 390.893494,406.981293 
	C382.851440,405.311188 373.704315,398.276581 373.210602,388.869415 
	C372.462372,374.611877 372.403168,360.267120 373.045319,346.004150 
	C373.544922,334.907532 385.447998,325.810089 400.790558,327.315216 
	C409.275177,328.147552 420.341003,338.380859 419.765259,349.585358 
	C419.159821,361.366943 419.661285,373.203491 419.570587,385.015167 
	C419.552917,387.312469 419.036987,389.605896 418.565094,392.251923 
z"/>
</svg>